<?xml version="1.0" encoding="UTF-8" standalone="no"?>
<!DOCTYPE svg PUBLIC "-//W3C//DTD SVG 1.1//EN" "http://www.w3.org/Graphics/SVG/1.1/DTD/svg11.dtd">
<svg width="100%" height="100%" viewBox="0 0 24 24" version="1.1" xmlns="http://www.w3.org/2000/svg" xmlns:xlink="http://www.w3.org/1999/xlink" xml:space="preserve" style="fill-rule:evenodd;clip-rule:evenodd;stroke-linejoin:round;stroke-miterlimit:1.41421;">
    <g transform="matrix(1,0,0,1,-434,-50)">
        <path id="_20" d="M457.914,67.586L452,73.5L448.086,69.586L449.5,68.172L452,70.672L456.5,66.172C456.971,66.643 457.443,67.114 457.914,67.586ZM454,64.083C453.675,64.028 453.341,64 453,64C449.689,64 447,66.689 447,70L435,70C434.448,70 434,69.552 434,69L434,58L454,58L454,64.083ZM443,56L434,56L438.5,50L443,50L443,56ZM454,56L445,56L445,50L449.5,50L454,56Z"/>
    </g>
</svg>
