<?xml version="1.0" encoding="UTF-8" standalone="no"?>
<!DOCTYPE svg PUBLIC "-//W3C//DTD SVG 1.1//EN" "http://www.w3.org/Graphics/SVG/1.1/DTD/svg11.dtd">
<svg width="100%" height="100%" viewBox="0 0 24 24" version="1.1" xmlns="http://www.w3.org/2000/svg" xmlns:xlink="http://www.w3.org/1999/xlink" xml:space="preserve" style="fill-rule:evenodd;clip-rule:evenodd;stroke-linejoin:round;stroke-miterlimit:1.41421;">
    <g transform="matrix(1,0,0,1,-194,-146)">
        <path id="_35" d="M218,161.126L210.597,168.529L204.711,170L206.183,164.114L213.586,156.711C215.057,158.183 216.529,159.654 218,161.126ZM210.586,162.54L207.989,165.137L207.46,167.251L209.575,166.723L212.172,164.126L210.586,162.54ZM202.582,166L195,166C194.448,166 194,165.552 194,165L194,154L214,154L214,156.072C212.823,155.39 211.457,155 210,155C205.585,155 202,158.585 202,163C202,164.061 202.207,165.073 202.582,166ZM212,161.126L213.586,162.711L215.172,161.126L213.586,159.54L212,161.126ZM203,152L194,152L198.5,146L203,146L203,152ZM214,152L205,152L205,146L209.5,146L214,152Z"/>
    </g>
</svg>
