<?xml version="1.0" encoding="UTF-8" standalone="no"?>
<!DOCTYPE svg PUBLIC "-//W3C//DTD SVG 1.1//EN" "http://www.w3.org/Graphics/SVG/1.1/DTD/svg11.dtd">
<svg width="100%" height="100%" viewBox="0 0 24 24" version="1.1" xmlns="http://www.w3.org/2000/svg" xmlns:xlink="http://www.w3.org/1999/xlink" xml:space="preserve" style="fill-rule:evenodd;clip-rule:evenodd;stroke-linejoin:round;stroke-miterlimit:1.41421;">
    <g transform="matrix(1,0,0,1,-242,-50)">
        <path id="_16" d="M251,71C251,70.448 250.552,70 250,70C248.463,70 245.537,70 244,70C243.448,70 243,70.448 243,71C243,71.611 243,72.389 243,73C243,73.552 243.448,74 244,74C245.537,74 248.463,74 250,74C250.552,74 251,73.552 251,73C251,72.389 251,71.611 251,71ZM256.867,71C256.867,70.448 257.315,70 257.867,70C259.404,70 262.33,70 263.867,70C264.419,70 264.867,70.448 264.867,71C264.867,71.611 264.867,72.389 264.867,73C264.867,73.552 264.419,74 263.867,74C262.33,74 259.404,74 257.867,74C257.315,74 256.867,73.552 256.867,73C256.867,72.389 256.867,71.611 256.867,71ZM250,69L244.5,69L243,67C243,67 243,59.711 243,57C243,56.448 243.448,56 244,56C244.873,56 246,56 246,56L247.5,63C247.5,63 248.554,61.946 249.293,61.207C249.683,60.817 250.317,60.817 250.707,61.207C250.997,61.497 251.322,61.822 251.574,62.074C251.836,62.336 251.932,62.721 251.823,63.075L250,69ZM257.867,69L263.367,69L264.867,67C264.867,67 264.867,59.711 264.867,57C264.867,56.448 264.419,56 263.867,56C262.995,56 261.867,56 261.867,56L260.367,63C260.367,63 259.314,61.946 258.574,61.207C258.184,60.817 257.551,60.817 257.16,61.207C256.87,61.497 256.545,61.822 256.293,62.074C256.031,62.336 255.935,62.721 256.044,63.075L257.867,69ZM247.934,53L253.934,56L253.934,61L247.934,58L247.934,53ZM259.934,58L254.934,61L254.934,55.887L259.934,53L259.934,58ZM258.862,52.464L254.434,55.021L249.061,52.436L253.934,50L258.862,52.464Z"/>
    </g>
</svg>
