<?xml version="1.0" encoding="UTF-8" standalone="no"?>
<!DOCTYPE svg PUBLIC "-//W3C//DTD SVG 1.1//EN" "http://www.w3.org/Graphics/SVG/1.1/DTD/svg11.dtd">
<svg width="100%" height="100%" viewBox="0 0 24 24" version="1.1" xmlns="http://www.w3.org/2000/svg" xmlns:xlink="http://www.w3.org/1999/xlink" xml:space="preserve" style="fill-rule:evenodd;clip-rule:evenodd;stroke-linejoin:round;stroke-miterlimit:1.41421;">
    <g transform="matrix(1,0,0,1,-2,-98)">
        <path id="_21" d="M22,116.586L24.586,114L26,115.414L23.414,118L26,120.586L24.586,122L22,119.414L19.414,122L18,120.586L20.586,118L18,115.414L19.414,114L22,116.586ZM22,112C18.689,112 16,114.689 16,118L3,118C2.448,118 2,117.552 2,117L2,106L22,106L22,112ZM11,104L2,104L6.5,98L11,98L11,104ZM22,104L13,104L13,98L17.5,98L22,104Z"/>
    </g>
</svg>
